<?xml version="1.0" standalone="no"?>
<!DOCTYPE svg PUBLIC "-//W3C//DTD SVG 20010904//EN"
 "http://www.w3.org/TR/2001/REC-SVG-20010904/DTD/svg10.dtd">
<svg version="1.0" xmlns="http://www.w3.org/2000/svg"
 width="1000.000000pt" height="1000.000000pt" viewBox="0 0 1000.000000 1000.000000"
 preserveAspectRatio="xMidYMid meet">
<metadata>
Created by potrace 1.14, written by Peter Selinger 2001-2017
</metadata>
<g transform="translate(0.000000,1000.000000) scale(0.100000,-0.100000)"
fill="#000000" stroke="none">
<path d="M2665 8860 c-598 -4 -766 -8 -790 -18 -53 -24 -92 -60 -116 -109
l-24 -48 -3 -3685 c-2 -3288 -1 -3689 13 -3726 8 -22 33 -58 56 -80 l40 -39
794 -3 795 -2 0 1278 0 1279 308 7 c326 8 587 -3 682 -28 75 -20 142 -49 205
-92 71 -46 307 -336 1425 -1748 239 -302 461 -578 493 -612 100 -108 5 -99
1012 -102 484 -2 906 -2 939 0 l58 3 -1076 1360 c-591 748 -1072 1363 -1068
1366 4 4 70 34 147 68 264 118 457 232 650 388 127 102 329 311 426 439 470
624 628 1423 429 2171 -138 516 -454 1016 -855 1351 -393 329 -929 531 -1538
581 -131 11 -1493 12 -3002 1z m2675 -1470 c214 -9 276 -19 396 -63 115 -42
237 -121 338 -216 390 -371 456 -978 161 -1458 -63 -102 -235 -274 -330 -329
-99 -58 -189 -91 -291 -109 -151 -25 -690 -36 -1466 -29 l-718 7 0 1104 0
1103 848 0 c466 -1 944 -5 1062 -10z"/>
</g>
</svg>
