<?xml version="1.0" standalone="no"?>
<!DOCTYPE svg PUBLIC "-//W3C//DTD SVG 20010904//EN"
 "http://www.w3.org/TR/2001/REC-SVG-20010904/DTD/svg10.dtd">
<svg version="1.0" xmlns="http://www.w3.org/2000/svg"
 width="1024.000000pt" height="1024.000000pt" viewBox="0 0 1024.000000 1024.000000"
 preserveAspectRatio="xMidYMid meet">
<metadata>
Created by potrace 1.14, written by Peter Selinger 2001-2017
</metadata>
<g transform="translate(0.000000,1024.000000) scale(0.100000,-0.100000)"
fill="#000000" stroke="none">
<path d="M3760 7840 c-615 -5 -636 -6 -670 -25 -19 -12 -44 -38 -55 -60 -20
-40 -20 -63 -23 -2525 -1 -1367 0 -2499 3 -2517 3 -18 21 -48 39 -68 l33 -35
537 0 536 0 2 868 3 867 310 0 c268 -1 318 -3 370 -19 73 -22 140 -59 179
-100 32 -35 569 -704 950 -1186 285 -359 307 -386 352 -419 l32 -23 641 -6
c353 -3 641 -2 641 2 0 4 -18 28 -39 54 -21 26 -350 441 -731 922 l-691 875
43 19 c275 127 411 210 561 340 274 240 468 578 548 952 21 96 24 136 24 334
-1 195 -4 239 -23 330 -110 510 -419 946 -842 1185 -222 126 -511 209 -810
234 -113 9 -891 10 -1920 1z m1905 -1019 c210 -68 353 -189 446 -376 56 -115
79 -215 79 -349 0 -138 -24 -238 -84 -361 -92 -186 -252 -322 -430 -364 -86
-21 -524 -31 -1028 -24 l-488 6 0 749 0 750 718 -4 c713 -4 717 -4 787 -27z"/>
</g>
</svg>
